<svg width="72" height="72" viewBox="0 0 72 72" fill="none" xmlns="http://www.w3.org/2000/svg">
<g clip-path="url(#clip0_3_10)">
<rect width="72" height="72" fill="#25242D"/>
<path d="M54.4746 53.0517C52.1494 55.3119 49.5757 57.0103 46.7535 58.1471C43.9016 59.2532 40.9821 59.8002 37.9952 59.7881C34.9785 59.7453 32.0753 59.1459 29.2856 57.99C26.4968 56.7737 23.9723 55.003 21.7121 52.6778C19.4519 50.3527 17.7683 47.7943 16.6613 45.0027C15.5551 42.1507 15.0383 39.2317 15.1108 36.2456C15.1536 33.229 15.7831 30.3262 16.9993 27.5374C18.1859 24.7179 19.9417 22.1781 22.2669 19.9179C23.9496 18.2823 25.764 16.9351 27.71 15.8765C29.657 14.7575 31.6748 13.9563 33.7636 13.473C35.8532 12.9293 37.9683 12.7179 40.1089 12.8388L40.1773 17.592C37.5252 17.3733 34.9096 17.7738 32.3304 18.7933C29.7215 19.7822 27.4228 21.2432 25.4341 23.1762C23.5679 24.9903 22.1664 27.0071 21.2298 29.2266C20.2931 31.4462 19.823 33.7477 19.8194 36.1313C19.8166 38.4546 20.2668 40.7541 21.1699 43.0299C22.0739 45.2453 23.4478 47.3015 25.2916 49.1983C27.1057 51.0646 29.1221 52.4962 31.3408 53.4932C33.59 54.4604 35.906 54.976 38.2888 55.04C40.6418 55.0733 42.9409 54.6533 45.1861 53.7799C47.4618 52.8768 49.5328 51.5182 51.3991 49.7041C53.3877 47.7711 54.9129 45.5448 55.9744 43.0253C57.0063 40.4753 57.465 37.9171 57.3505 35.3508L61.9647 35.5067C61.9645 37.6489 61.678 39.7721 61.105 41.8761C60.5627 43.9503 59.7349 45.9451 58.6215 47.8604C57.4784 49.745 56.0961 51.4755 54.4746 53.0517Z" fill="#FFB2F1"/>
<path d="M38 21L41.5922 32.0557H53.2169L43.8123 38.8885L47.4046 49.9443L38 43.1115L28.5954 49.9443L32.1877 38.8885L22.7831 32.0557H34.4078L38 21Z" fill="#FFB2F1"/>
</g>
<defs>
<clipPath id="clip0_3_10">
<rect width="72" height="72" fill="white"/>
</clipPath>
</defs>
</svg>