<svg width="354" height="108" viewBox="0 0 354 108" fill="none" xmlns="http://www.w3.org/2000/svg">
<g clip-path="url(#clip0_3_2)">
<path d="M16.936 53.608C17.192 54.76 17.7253 55.912 18.536 57.064C19.3893 58.1733 20.5413 59.112 21.992 59.88C23.4853 60.6053 25.384 60.968 27.688 60.968C30.9733 60.968 33.4053 60.2 34.984 58.664C36.5627 57.128 37.352 55.3147 37.352 53.224C37.352 51.56 36.904 50.1947 36.008 49.128C35.112 48.0613 33.896 47.1867 32.36 46.504C30.824 45.7787 29.096 45.1387 27.176 44.584C25.4693 44.1147 23.7627 43.6027 22.056 43.048C20.392 42.4507 18.8773 41.7253 17.512 40.872C16.1467 39.976 15.0587 38.824 14.248 37.416C13.4373 36.008 13.032 34.2587 13.032 32.168C13.032 29.6507 13.6293 27.4747 14.824 25.64C16.0187 23.7627 17.704 22.312 19.88 21.288C22.056 20.264 24.5947 19.752 27.496 19.752C30.0133 19.752 32.2107 20.1147 34.088 20.84C35.9653 21.5653 37.5227 22.5893 38.76 23.912C40.04 25.192 40.9787 26.6853 41.576 28.392L37.032 30.12C36.7333 29.1387 36.1573 28.2 35.304 27.304C34.4507 26.3653 33.3413 25.5973 31.976 25C30.6107 24.4027 29.0533 24.104 27.304 24.104C25.5973 24.104 24.04 24.4027 22.632 25C21.2667 25.5973 20.1787 26.4507 19.368 27.56C18.5573 28.6693 18.152 30.0133 18.152 31.592C18.152 33.2987 18.6213 34.664 19.56 35.688C20.5413 36.6693 21.8213 37.48 23.4 38.12C25.0213 38.7173 26.792 39.2933 28.712 39.848C30.4613 40.4027 32.1467 41 33.768 41.64C35.432 42.28 36.904 43.0693 38.184 44.008C39.5067 44.9467 40.552 46.12 41.32 47.528C42.088 48.936 42.472 50.664 42.472 52.712C42.472 54.9733 41.9387 57.0853 40.872 59.048C39.8053 60.968 38.184 62.5253 36.008 63.72C33.8747 64.872 31.1227 65.448 27.752 65.448C24.936 65.448 22.4613 65.0213 20.328 64.168C18.1947 63.272 16.4453 62.0773 15.08 60.584C13.7147 59.0907 12.776 57.384 12.264 55.464L16.936 53.608ZM80.566 24.68H56.31V39.976H74.55V44.456H56.31V60.52H80.566V65H51.19V20.2H80.566V24.68ZM123.377 20.2H156.977V24.68H142.769V65H137.649V24.68H123.377V20.2ZM194.504 24.68H170.248V39.976H188.488V44.456H170.248V60.52H194.504V65H165.128V20.2H194.504V24.68ZM209.248 20.2V60.52H230.176V65H204.128V20.2H209.248ZM242.498 20.2V60.52H263.426V65H237.378V20.2H242.498ZM300.004 24.68H275.748V39.976H293.988V44.456H275.748V60.52H300.004V65H270.628V20.2H300.004V24.68ZM335.484 33.448C335.484 30.76 334.694 28.6267 333.116 27.048C331.537 25.4693 328.956 24.68 325.372 24.68H314.748V42.216H325.436C327.782 42.216 329.681 41.8533 331.132 41.128C332.625 40.4027 333.713 39.3787 334.396 38.056C335.121 36.7333 335.484 35.1973 335.484 33.448ZM325.372 20.2C328.87 20.2 331.729 20.7973 333.948 21.992C336.209 23.1867 337.894 24.7867 339.004 26.792C340.113 28.7547 340.668 30.9733 340.668 33.448C340.668 35.1973 340.369 36.8613 339.772 38.44C339.217 40.0187 338.321 41.4267 337.083 42.664C335.846 43.9013 334.268 44.8827 332.348 45.608C330.428 46.3333 328.124 46.696 325.436 46.696H314.748V65H309.628V20.2H325.372ZM329.084 44.776L341.5 65H335.676L323.58 44.776H329.084Z" fill="#FFB2F1"/>
<path d="M122.475 59.0517C120.149 61.3119 117.576 63.0103 114.754 64.1471C111.902 65.2532 108.982 65.8002 105.995 65.7881C102.979 65.7453 100.075 65.1459 97.2856 63.99C94.4968 62.7737 91.9723 61.003 89.7121 58.6778C87.4519 56.3527 85.7683 53.7943 84.6613 51.0027C83.5551 48.1507 83.0383 45.2317 83.1108 42.2456C83.1536 39.229 83.7831 36.3262 84.9993 33.5374C86.1859 30.7179 87.9417 28.1781 90.2669 25.9179C91.9496 24.2823 93.764 22.9351 95.71 21.8765C97.657 20.7575 99.6748 19.9563 101.764 19.473C103.853 18.9293 105.968 18.7179 108.109 18.8388L108.177 23.592C105.525 23.3733 102.91 23.7738 100.33 24.7933C97.7215 25.7822 95.4228 27.2432 93.4341 29.1762C91.5679 30.9903 90.1664 33.0071 89.2298 35.2266C88.2931 37.4462 87.823 39.7477 87.8194 42.1313C87.8166 44.4546 88.2668 46.7541 89.1699 49.0299C90.0739 51.2453 91.4478 53.3015 93.2916 55.1983C95.1057 57.0646 97.1221 58.4962 99.3408 59.4932C101.59 60.4604 103.906 60.976 106.289 61.04C108.642 61.0733 110.941 60.6533 113.186 59.7799C115.462 58.8768 117.533 57.5182 119.399 55.7041C121.388 53.7711 122.913 51.5448 123.974 49.0253C125.006 46.4753 125.465 43.9171 125.35 41.3508L129.965 41.5067C129.965 43.6489 129.678 45.7721 129.105 47.8761C128.563 49.9503 127.735 51.9451 126.621 53.8604C125.478 55.745 124.096 57.4755 122.475 59.0517Z" fill="#FFB2F1"/>
<path d="M106 27L109.592 38.0557H121.217L111.812 44.8885L115.405 55.9443L106 49.1115L96.5954 55.9443L100.188 44.8885L90.7831 38.0557H102.408L106 27Z" fill="#FFB2F1"/>
<path d="M18.72 90L15.336 77.976H17.088L19.68 87.576L22.68 77.976H24.264L27.24 87.576L29.856 77.976H31.536L28.128 90H26.424L23.448 80.376L20.448 90H18.72ZM41.6726 90.216C40.5206 90.216 39.4726 89.944 38.5286 89.4C37.6006 88.84 36.8566 88.088 36.2966 87.144C35.7526 86.2 35.4806 85.144 35.4806 83.976C35.4806 82.824 35.7446 81.784 36.2726 80.856C36.8006 79.912 37.5126 79.168 38.4086 78.624C39.3046 78.064 40.3046 77.784 41.4086 77.784C42.4806 77.784 43.4406 78.064 44.2886 78.624C45.1526 79.168 45.8326 79.912 46.3286 80.856C46.8406 81.784 47.0966 82.824 47.0966 83.976V84.528H37.2326C37.3286 85.312 37.5766 86.016 37.9766 86.64C38.3926 87.264 38.9286 87.76 39.5846 88.128C40.2406 88.48 40.9606 88.656 41.7446 88.656C42.3686 88.656 42.9766 88.56 43.5686 88.368C44.1606 88.176 44.6566 87.904 45.0566 87.552L46.1606 88.728C45.4886 89.224 44.7846 89.6 44.0486 89.856C43.3286 90.096 42.5366 90.216 41.6726 90.216ZM37.2806 83.112H45.3206C45.2246 82.392 44.9846 81.752 44.6006 81.192C44.2326 80.616 43.7686 80.168 43.2086 79.848C42.6486 79.512 42.0326 79.344 41.3606 79.344C40.6726 79.344 40.0406 79.504 39.4646 79.824C38.8886 80.144 38.4086 80.592 38.0246 81.168C37.6406 81.728 37.3926 82.376 37.2806 83.112ZM52.4595 90V73.2L54.2355 72.792V79.248C55.2595 78.272 56.5475 77.784 58.0995 77.784C59.2355 77.784 60.2595 78.064 61.1715 78.624C62.0835 79.168 62.8035 79.904 63.3315 80.832C63.8755 81.76 64.1475 82.808 64.1475 83.976C64.1475 85.144 63.8755 86.2 63.3315 87.144C62.8035 88.072 62.0835 88.816 61.1715 89.376C60.2595 89.92 59.2275 90.192 58.0755 90.192C57.3715 90.192 56.6835 90.072 56.0115 89.832C55.3555 89.592 54.7555 89.248 54.2115 88.8V90H52.4595ZM57.9315 88.632C58.7795 88.632 59.5395 88.432 60.2115 88.032C60.8835 87.616 61.4115 87.064 61.7955 86.376C62.1955 85.672 62.3955 84.88 62.3955 84C62.3955 83.12 62.1955 82.328 61.7955 81.624C61.4115 80.92 60.8835 80.368 60.2115 79.968C59.5395 79.552 58.7795 79.344 57.9315 79.344C57.1795 79.344 56.4755 79.496 55.8195 79.8C55.1795 80.088 54.6515 80.496 54.2355 81.024V86.976C54.6515 87.488 55.1875 87.896 55.8435 88.2C56.4995 88.488 57.1955 88.632 57.9315 88.632ZM73.3357 90.24C72.3437 90.24 71.4077 90.08 70.5277 89.76C69.6637 89.424 68.9117 88.96 68.2717 88.368L69.3517 87.216C69.9117 87.728 70.5277 88.128 71.1997 88.416C71.8717 88.688 72.5597 88.824 73.2637 88.824C74.2237 88.824 75.0077 88.624 75.6157 88.224C76.2237 87.824 76.5277 87.304 76.5277 86.664C76.5277 86.136 76.3437 85.728 75.9757 85.44C75.6237 85.136 75.0637 84.928 74.2957 84.816L72.2077 84.528C71.0077 84.352 70.1117 83.992 69.5197 83.448C68.9437 82.904 68.6557 82.168 68.6557 81.24C68.6557 80.568 68.8477 79.968 69.2317 79.44C69.6157 78.912 70.1437 78.496 70.8157 78.192C71.5037 77.888 72.2877 77.736 73.1677 77.736C74.0477 77.736 74.8717 77.864 75.6397 78.12C76.4077 78.376 77.1597 78.776 77.8957 79.32L76.9597 80.52C76.2877 80.056 75.6317 79.72 74.9918 79.512C74.3677 79.288 73.7277 79.176 73.0717 79.176C72.2397 79.176 71.5677 79.36 71.0557 79.728C70.5437 80.096 70.2877 80.576 70.2877 81.168C70.2877 81.712 70.4637 82.128 70.8157 82.416C71.1677 82.688 71.7357 82.88 72.5197 82.992L74.6077 83.28C75.8077 83.44 76.7037 83.792 77.2957 84.336C77.9037 84.88 78.2078 85.624 78.2078 86.568C78.2078 87.256 77.9918 87.88 77.5597 88.44C77.1277 89 76.5437 89.44 75.8077 89.76C75.0877 90.08 74.2637 90.24 73.3357 90.24ZM83.0867 90V77.976H84.8627V90H83.0867ZM83.9747 75.672C83.6547 75.672 83.3747 75.552 83.1347 75.312C82.8947 75.072 82.7747 74.792 82.7747 74.472C82.7747 74.136 82.8947 73.856 83.1347 73.632C83.3747 73.392 83.6547 73.272 83.9747 73.272C84.3107 73.272 84.5907 73.392 84.8147 73.632C85.0547 73.856 85.1747 74.136 85.1747 74.472C85.1747 74.792 85.0547 75.072 84.8147 75.312C84.5907 75.552 84.3107 75.672 83.9747 75.672ZM95.4994 90.24C94.4594 90.24 93.6594 89.992 93.0994 89.496C92.5394 89 92.2594 88.28 92.2594 87.336V79.488H89.6674V77.976H92.2594V74.928L94.0114 74.472V77.976H97.6354V79.488H94.0114V86.88C94.0114 87.52 94.1554 87.984 94.4434 88.272C94.7314 88.544 95.2034 88.68 95.8594 88.68C96.1954 88.68 96.4914 88.656 96.7474 88.608C97.0194 88.56 97.3074 88.48 97.6114 88.368V89.928C97.3074 90.04 96.9634 90.12 96.5794 90.168C96.2114 90.216 95.8514 90.24 95.4994 90.24ZM107.823 90.216C106.671 90.216 105.623 89.944 104.679 89.4C103.751 88.84 103.007 88.088 102.447 87.144C101.903 86.2 101.631 85.144 101.631 83.976C101.631 82.824 101.895 81.784 102.423 80.856C102.951 79.912 103.663 79.168 104.559 78.624C105.455 78.064 106.455 77.784 107.559 77.784C108.631 77.784 109.591 78.064 110.439 78.624C111.303 79.168 111.983 79.912 112.479 80.856C112.991 81.784 113.247 82.824 113.247 83.976V84.528H103.383C103.479 85.312 103.727 86.016 104.127 86.64C104.543 87.264 105.079 87.76 105.735 88.128C106.391 88.48 107.111 88.656 107.895 88.656C108.519 88.656 109.127 88.56 109.719 88.368C110.311 88.176 110.807 87.904 111.207 87.552L112.311 88.728C111.639 89.224 110.935 89.6 110.199 89.856C109.479 90.096 108.687 90.216 107.823 90.216ZM103.431 83.112H111.471C111.375 82.392 111.135 81.752 110.751 81.192C110.383 80.616 109.919 80.168 109.359 79.848C108.799 79.512 108.183 79.344 107.511 79.344C106.823 79.344 106.191 79.504 105.615 79.824C105.039 80.144 104.559 80.592 104.175 81.168C103.791 81.728 103.543 82.376 103.431 83.112ZM130.486 90.24C129.494 90.24 128.558 90.08 127.678 89.76C126.814 89.424 126.062 88.96 125.422 88.368L126.502 87.216C127.062 87.728 127.678 88.128 128.35 88.416C129.022 88.688 129.71 88.824 130.414 88.824C131.374 88.824 132.158 88.624 132.766 88.224C133.374 87.824 133.678 87.304 133.678 86.664C133.678 86.136 133.494 85.728 133.126 85.44C132.774 85.136 132.214 84.928 131.446 84.816L129.358 84.528C128.158 84.352 127.262 83.992 126.67 83.448C126.094 82.904 125.806 82.168 125.806 81.24C125.806 80.568 125.998 79.968 126.382 79.44C126.766 78.912 127.294 78.496 127.966 78.192C128.654 77.888 129.438 77.736 130.318 77.736C131.198 77.736 132.022 77.864 132.79 78.12C133.558 78.376 134.31 78.776 135.046 79.32L134.11 80.52C133.438 80.056 132.782 79.72 132.142 79.512C131.518 79.288 130.878 79.176 130.222 79.176C129.39 79.176 128.718 79.36 128.206 79.728C127.694 80.096 127.438 80.576 127.438 81.168C127.438 81.712 127.614 82.128 127.966 82.416C128.318 82.688 128.886 82.88 129.67 82.992L131.758 83.28C132.958 83.44 133.854 83.792 134.446 84.336C135.054 84.88 135.358 85.624 135.358 86.568C135.358 87.256 135.142 87.88 134.71 88.44C134.278 89 133.694 89.44 132.958 89.76C132.238 90.08 131.414 90.24 130.486 90.24ZM145.994 90.216C144.842 90.216 143.794 89.944 142.85 89.4C141.922 88.84 141.178 88.088 140.618 87.144C140.074 86.2 139.802 85.144 139.802 83.976C139.802 82.824 140.066 81.784 140.594 80.856C141.122 79.912 141.834 79.168 142.73 78.624C143.626 78.064 144.626 77.784 145.73 77.784C146.802 77.784 147.762 78.064 148.61 78.624C149.474 79.168 150.154 79.912 150.65 80.856C151.162 81.784 151.418 82.824 151.418 83.976V84.528H141.554C141.65 85.312 141.898 86.016 142.298 86.64C142.714 87.264 143.25 87.76 143.906 88.128C144.562 88.48 145.282 88.656 146.066 88.656C146.69 88.656 147.298 88.56 147.89 88.368C148.482 88.176 148.978 87.904 149.378 87.552L150.482 88.728C149.81 89.224 149.106 89.6 148.37 89.856C147.65 90.096 146.858 90.216 145.994 90.216ZM141.602 83.112H149.642C149.546 82.392 149.306 81.752 148.922 81.192C148.554 80.616 148.09 80.168 147.53 79.848C146.97 79.512 146.354 79.344 145.682 79.344C144.994 79.344 144.362 79.504 143.786 79.824C143.21 80.144 142.73 80.592 142.346 81.168C141.962 81.728 141.714 82.376 141.602 83.112ZM162.349 90.216C161.213 90.216 160.181 89.944 159.253 89.4C158.325 88.84 157.589 88.088 157.045 87.144C156.501 86.2 156.229 85.144 156.229 83.976C156.229 82.808 156.501 81.76 157.045 80.832C157.589 79.888 158.325 79.136 159.253 78.576C160.181 78.016 161.213 77.736 162.349 77.736C163.229 77.736 164.077 77.904 164.893 78.24C165.709 78.56 166.429 79.024 167.053 79.632L165.925 80.928C165.445 80.416 164.893 80.032 164.269 79.776C163.661 79.504 163.029 79.368 162.373 79.368C161.557 79.368 160.813 79.576 160.141 79.992C159.485 80.392 158.957 80.944 158.557 81.648C158.173 82.336 157.981 83.112 157.981 83.976C157.981 84.84 158.173 85.624 158.557 86.328C158.957 87.032 159.493 87.592 160.165 88.008C160.837 88.408 161.581 88.608 162.397 88.608C163.053 88.608 163.669 88.48 164.245 88.224C164.837 87.968 165.389 87.592 165.901 87.096L167.005 88.296C166.365 88.904 165.645 89.376 164.845 89.712C164.045 90.048 163.213 90.216 162.349 90.216ZM176.573 90.24C175.661 90.24 174.853 90.048 174.149 89.664C173.445 89.264 172.893 88.72 172.493 88.032C172.109 87.328 171.917 86.512 171.917 85.584V77.976H173.669V85.224C173.669 86.296 173.973 87.144 174.581 87.768C175.189 88.376 176.005 88.68 177.029 88.68C177.749 88.68 178.389 88.52 178.949 88.2C179.525 87.864 179.989 87.4 180.341 86.808V77.976H182.117V90H180.341V88.608C179.397 89.696 178.141 90.24 176.573 90.24ZM188.017 90V77.976H189.793V79.68C190.161 79.056 190.625 78.576 191.185 78.24C191.761 77.888 192.417 77.712 193.153 77.712C193.569 77.712 193.945 77.768 194.281 77.88V79.512C194.073 79.432 193.865 79.376 193.657 79.344C193.449 79.312 193.241 79.296 193.033 79.296C192.297 79.296 191.649 79.512 191.089 79.944C190.545 80.36 190.113 80.968 189.793 81.768V90H188.017ZM199.194 90V77.976H200.97V90H199.194ZM200.082 75.672C199.762 75.672 199.482 75.552 199.242 75.312C199.002 75.072 198.882 74.792 198.882 74.472C198.882 74.136 199.002 73.856 199.242 73.632C199.482 73.392 199.762 73.272 200.082 73.272C200.418 73.272 200.698 73.392 200.922 73.632C201.162 73.856 201.282 74.136 201.282 74.472C201.282 74.792 201.162 75.072 200.922 75.312C200.698 75.552 200.418 75.672 200.082 75.672ZM211.607 90.24C210.567 90.24 209.767 89.992 209.207 89.496C208.647 89 208.367 88.28 208.367 87.336V79.488H205.775V77.976H208.367V74.928L210.119 74.472V77.976H213.743V79.488H210.119V86.88C210.119 87.52 210.263 87.984 210.551 88.272C210.839 88.544 211.311 88.68 211.967 88.68C212.303 88.68 212.599 88.656 212.855 88.608C213.127 88.56 213.415 88.48 213.719 88.368V89.928C213.415 90.04 213.071 90.12 212.687 90.168C212.319 90.216 211.959 90.24 211.607 90.24ZM219.263 95.136C219.039 95.136 218.823 95.12 218.615 95.088C218.423 95.072 218.263 95.048 218.135 95.016V93.408C218.407 93.472 218.743 93.504 219.143 93.504C220.199 93.504 220.999 92.88 221.543 91.632L222.263 89.976L217.367 77.976H219.335L223.223 87.84L227.423 77.976H229.343L223.343 91.872C223.007 92.64 222.647 93.264 222.263 93.744C221.879 94.224 221.439 94.576 220.943 94.8C220.463 95.024 219.903 95.136 219.263 95.136ZM245.702 90.216C244.822 90.216 244.046 90.064 243.374 89.76C242.718 89.456 242.198 89.032 241.814 88.488C241.446 87.944 241.262 87.312 241.262 86.592C241.262 85.456 241.694 84.56 242.558 83.904C243.422 83.248 244.59 82.92 246.062 82.92C247.358 82.92 248.534 83.192 249.59 83.736V82.152C249.59 81.192 249.318 80.472 248.774 79.992C248.23 79.496 247.438 79.248 246.398 79.248C245.806 79.248 245.206 79.336 244.598 79.512C244.006 79.672 243.35 79.936 242.63 80.304L241.958 78.936C242.822 78.52 243.622 78.216 244.358 78.024C245.094 77.832 245.83 77.736 246.566 77.736C248.086 77.736 249.254 78.096 250.07 78.816C250.902 79.536 251.318 80.568 251.318 81.912V90H249.59V88.824C249.046 89.288 248.446 89.64 247.79 89.88C247.15 90.104 246.454 90.216 245.702 90.216ZM242.966 86.544C242.966 87.216 243.246 87.768 243.806 88.2C244.382 88.616 245.118 88.824 246.014 88.824C246.734 88.824 247.39 88.712 247.982 88.488C248.574 88.264 249.11 87.912 249.59 87.432V85.176C249.094 84.84 248.566 84.6 248.006 84.456C247.446 84.296 246.814 84.216 246.11 84.216C245.15 84.216 244.382 84.432 243.806 84.864C243.246 85.28 242.966 85.84 242.966 86.544ZM257.164 90V77.976H258.94V79.392C259.884 78.288 261.148 77.736 262.732 77.736C263.644 77.736 264.444 77.936 265.132 78.336C265.836 78.72 266.38 79.264 266.764 79.968C267.164 80.656 267.364 81.464 267.364 82.392V90H265.612V82.752C265.612 81.68 265.308 80.84 264.7 80.232C264.108 79.608 263.292 79.296 262.252 79.296C261.532 79.296 260.892 79.456 260.332 79.776C259.772 80.096 259.308 80.552 258.94 81.144V90H257.164ZM277.008 90.216C276.128 90.216 275.352 90.064 274.68 89.76C274.024 89.456 273.504 89.032 273.12 88.488C272.752 87.944 272.568 87.312 272.568 86.592C272.568 85.456 273 84.56 273.864 83.904C274.728 83.248 275.896 82.92 277.368 82.92C278.664 82.92 279.84 83.192 280.896 83.736V82.152C280.896 81.192 280.624 80.472 280.08 79.992C279.536 79.496 278.744 79.248 277.704 79.248C277.112 79.248 276.512 79.336 275.904 79.512C275.312 79.672 274.656 79.936 273.936 80.304L273.264 78.936C274.128 78.52 274.928 78.216 275.664 78.024C276.4 77.832 277.136 77.736 277.872 77.736C279.392 77.736 280.56 78.096 281.376 78.816C282.208 79.536 282.624 80.568 282.624 81.912V90H280.896V88.824C280.352 89.288 279.752 89.64 279.096 89.88C278.456 90.104 277.76 90.216 277.008 90.216ZM274.272 86.544C274.272 87.216 274.552 87.768 275.112 88.2C275.688 88.616 276.424 88.824 277.32 88.824C278.04 88.824 278.696 88.712 279.288 88.488C279.88 88.264 280.416 87.912 280.896 87.432V85.176C280.4 84.84 279.872 84.6 279.312 84.456C278.752 84.296 278.12 84.216 277.416 84.216C276.456 84.216 275.688 84.432 275.112 84.864C274.552 85.28 274.272 85.84 274.272 86.544ZM288.471 90V73.2L290.247 72.792V90H288.471ZM296.66 95.136C296.436 95.136 296.22 95.12 296.012 95.088C295.82 95.072 295.66 95.048 295.532 95.016V93.408C295.804 93.472 296.14 93.504 296.54 93.504C297.596 93.504 298.396 92.88 298.94 91.632L299.66 89.976L294.764 77.976H296.732L300.62 87.84L304.82 77.976H306.74L300.74 91.872C300.404 92.64 300.044 93.264 299.66 93.744C299.276 94.224 298.836 94.576 298.34 94.8C297.86 95.024 297.3 95.136 296.66 95.136ZM310.502 90V88.608L317.75 79.56H310.574V77.976H319.91V79.344L312.638 88.416H319.982V90H310.502ZM330.525 90.216C329.373 90.216 328.325 89.944 327.381 89.4C326.453 88.84 325.709 88.088 325.149 87.144C324.605 86.2 324.333 85.144 324.333 83.976C324.333 82.824 324.597 81.784 325.125 80.856C325.653 79.912 326.365 79.168 327.261 78.624C328.157 78.064 329.157 77.784 330.261 77.784C331.333 77.784 332.293 78.064 333.141 78.624C334.005 79.168 334.685 79.912 335.181 80.856C335.693 81.784 335.949 82.824 335.949 83.976V84.528H326.085C326.181 85.312 326.429 86.016 326.829 86.64C327.245 87.264 327.781 87.76 328.437 88.128C329.093 88.48 329.813 88.656 330.597 88.656C331.221 88.656 331.829 88.56 332.421 88.368C333.013 88.176 333.509 87.904 333.909 87.552L335.013 88.728C334.341 89.224 333.637 89.6 332.901 89.856C332.181 90.096 331.389 90.216 330.525 90.216ZM326.133 83.112H334.173C334.077 82.392 333.837 81.752 333.453 81.192C333.085 80.616 332.621 80.168 332.061 79.848C331.501 79.512 330.885 79.344 330.213 79.344C329.525 79.344 328.893 79.504 328.317 79.824C327.741 80.144 327.261 80.592 326.877 81.168C326.493 81.728 326.245 82.376 326.133 83.112ZM341.312 90V77.976H343.088V79.68C343.456 79.056 343.92 78.576 344.48 78.24C345.056 77.888 345.712 77.712 346.448 77.712C346.864 77.712 347.24 77.768 347.576 77.88V79.512C347.368 79.432 347.16 79.376 346.952 79.344C346.744 79.312 346.536 79.296 346.328 79.296C345.592 79.296 344.944 79.512 344.384 79.944C343.84 80.36 343.408 80.968 343.088 81.768V90H341.312Z" fill="#D9D0F9"/>
</g>
<defs>
<clipPath id="clip0_3_2">
<rect width="354" height="108" fill="white"/>
</clipPath>
</defs>
</svg>